<?xml version="1.0" encoding="utf-8"?>
<!-- Generator: Adobe Illustrator 26.2.1, SVG Export Plug-In . SVG Version: 6.00 Build 0)  -->
<svg version="1.1" id="Layer_1" xmlns="http://www.w3.org/2000/svg" xmlns:xlink="http://www.w3.org/1999/xlink" x="0px" y="0px"
	 viewBox="0 0 532.9 427.2" style="enable-background:new 0 0 532.9 427.2;" xml:space="preserve">
<style type="text/css">
	.st0{clip-path:url(#SVGID_00000050638301773185413640000017775677429239890613_);}
	.st1{fill:#FFFFFF;}
	.st2{fill-rule:evenodd;clip-rule:evenodd;fill:#FFFFFF;}
</style>
<g>
	<defs>
		<rect id="SVGID_1_" x="-399.5" y="-161" width="1331.8" height="748.8"/>
	</defs>
	<clipPath id="SVGID_00000075163090915932162570000003014423078320508813_">
		<use xlink:href="#SVGID_1_"  style="overflow:visible;"/>
	</clipPath>
	<g style="clip-path:url(#SVGID_00000075163090915932162570000003014423078320508813_);">
		<path class="st1" d="M392.3,119.9c0-8-6.5-14.6-14.6-14.6c-8,0-14.6,6.5-14.6,14.6v43.5c0,8,6.5,14.6,14.6,14.6
			c8,0,14.6-6.5,14.6-14.6V119.9z"/>
		<path class="st2" d="M290.3,5.4h-43.5c-8,0.7-14,7.7-13.4,15.8c0.6,7.1,6.2,12.8,13.4,13.4h7.2v228.9c0,8,6.5,14.6,14.6,14.6
			c8,0,14.6-6.5,14.6-14.6V34.5h7.2c8-0.7,14-7.7,13.4-15.8C303.1,11.6,297.4,5.9,290.3,5.4"/>
		<path class="st2" d="M432.2,127.1c-8.1,0-14.6,6.5-14.6,14.6c0,8.1,6.5,14.6,14.6,14.6c8.1,0,14.6-6.5,14.6-14.6c0,0,0,0,0,0
			C446.8,133.6,440.3,127.1,432.2,127.1C432.2,127.1,432.2,127.1,432.2,127.1"/>
		<path class="st2" d="M191.6,36.3c-18.1-0.1-32.8,14.5-32.8,32.6c-0.1,18.1,14.5,32.8,32.6,32.8c1.3,0,2.5-0.1,3.8-0.2v109
			c0.2,8,6.9,14.4,14.9,14.2c7.8-0.2,14-6.4,14.2-14.2V72.8c0-0.4-0.1-0.8-0.1-1.2c0.1-0.8,0.1-1.7,0.1-2.5
			C224.3,51,209.7,36.4,191.6,36.3C191.6,36.3,191.6,36.3,191.6,36.3"/>
		<path class="st2" d="M373.9,69.1c0-18.1-14.6-32.7-32.7-32.7c-18.1,0-32.7,14.6-32.7,32.7c0,0,0,0,0,0c0,0.8,0.1,1.7,0.1,2.5
			c0,0.4-0.1,0.8-0.1,1.2v137.8c0.2,8,6.9,14.4,15,14.2c7.8-0.2,14-6.5,14.2-14.2v-109c1.2,0.1,2.4,0.2,3.5,0.2
			C359.3,101.7,373.9,87.1,373.9,69.1z"/>
		<path class="st1" d="M169.7,119.9c0-8-6.5-14.6-14.6-14.6c-8,0-14.6,6.5-14.6,14.6v43.5c0,8,6.5,14.6,14.6,14.6
			c8,0,14.6-6.5,14.6-14.6V119.9z"/>
		<path class="st2" d="M100.7,127.1c-8.1,0-14.7,6.5-14.7,14.6c0,8.1,6.5,14.7,14.6,14.7c8.1,0,14.7-6.5,14.7-14.6c0,0,0-0.1,0-0.1
			C115.3,133.6,108.7,127.1,100.7,127.1C100.7,127.1,100.7,127.1,100.7,127.1"/>
		<path class="st1" d="M60,370.4c0-17.5-8.8-29.3-25.8-29.3c-5.7,0-11.2,2.9-13.6,6.1V319H6.7v79.8h13.9V393
			c1.6,2.9,6.7,6.8,13.6,6.8C51.2,399.7,60,387.9,60,370.4 M45.4,370.4c0,11.3-5.8,17.4-13.1,17.4s-13-6.1-13-17.4
			c0-11.3,5.7-17.4,13-17.4S45.4,359.2,45.4,370.4"/>
		<path class="st1" d="M115.4,369.2c0-12.4-7.5-28.1-26.3-28.1C69.7,341.1,62,357,62,370.4s7.7,29.3,27.1,29.3
			c13.6,0,21.3-6.5,25.7-16.6l-11.2-4.2c-3.4,5.8-7.3,8.8-13.6,8.8c-8.6,0-13-6.5-13.3-12.8h38.9L115.4,369.2z M89.1,353.1
			c7.4,0,10.9,5.2,12.1,10.8H76.9C77.8,358.5,82,353.1,89.1,353.1"/>
		<path class="st1" d="M167.8,386.4c-1.6,0.9-3.5,1.4-5.4,1.3c-4.7,0-7.4-2.3-7.4-9.2v-24.6h14.9V342H155v-23l-13.9,8.8V342h-8.8
			v11.9h8.8v24.8c0,14.1,8,21,20.7,21c3.2,0,6.3-0.7,9.2-2L167.8,386.4z"/>
		<path class="st1" d="M174.1,319v79.8H188v-24c0-15.3,6.8-21.8,13.2-21.8c5.7,0,8.4,3.3,8.4,10.1v35.6h13.9v-40.6
			c0-11.6-6.9-17.1-17.5-17.1c-7.3-0.1-14.1,3.8-17.9,10V319L174.1,319z"/>
		<path class="st1" d="M282,369.2c0-12.4-7.5-28.1-26.3-28.1c-19.4,0-27.1,15.9-27.1,29.3s7.7,29.3,27.1,29.3
			c13.6,0,21.3-6.5,25.7-16.6l-11.2-4.2c-3.4,5.8-7.3,8.8-13.6,8.8c-8.6,0-13-6.5-13.3-12.8H282L282,369.2z M255.6,353.1
			c7.4,0,10.9,5.2,12.1,10.8h-24.3C244.4,358.5,248.6,353.1,255.6,353.1"/>
		<path class="st1" d="M300,398.8v-20.2c0-18.4,7.1-25,15.1-25c2.1,0,4.1,0.5,5.8,1.6l2.6-13c-2.2-0.7-4.5-1.1-6.8-1.1
			c-6.4,0-12.7,3.5-16.7,10.1V342h-13.9v56.8H300z"/>
		<path class="st1" d="M334.8,359.6c1.8-5.3,5.8-6.5,9.7-6.5c5.1,0,9.9,2,9.9,8.3v2.5H345c-14.2,0-24.1,7.3-24.1,18.6
			s7.5,17.2,17.1,17.2c8.1,0,13.4-3.3,17.4-8.1l1.5,7.2h11.4v-34c0-18.2-10.3-23.8-23.7-23.8c-11.5,0-19.7,6.4-21.5,15.8
			L334.8,359.6z M335.5,382.3c0-5.1,3.7-7.3,9.6-7.3h9.3v1.1c0,7.3-6.7,11.7-13.1,11.7c-3,0.2-5.6-2-5.8-5
			C335.4,382.6,335.4,382.4,335.5,382.3"/>
		<path class="st1" d="M427.4,370.4c0-17.5-8.8-29.3-25.8-29.3c-7,0-12.1,3.8-13.6,6.8V342h-13.9v79.8H388v-28.2
			c2.5,3.2,7.9,6.1,13.6,6.1C418.6,399.7,427.4,387.9,427.4,370.4 M412.8,370.4c0,11.3-5.8,17.4-13.1,17.4s-13-6.1-13-17.4
			s5.7-17.4,13-17.4S412.8,359.1,412.8,370.4"/>
		<path class="st1" d="M428.7,325.6c0,4.9,4.1,8.9,9,8.9c4.9,0,8.9-4.1,8.9-9c0-4.9-4-8.9-9-8.9c-4.8-0.1-8.9,3.7-9,8.6
			C428.7,325.4,428.7,325.5,428.7,325.6 M430.7,398.8h13.9V342h-13.9L430.7,398.8z"/>
		<path class="st1" d="M469.5,341.1c-11,0-18,7.8-18,16.6s5.3,12.7,11.4,15.3c6.8,2.9,14.1,3.9,14.1,8.7c0,4.2-2.7,6.1-6.9,6.1
			c-5.5,0-9.3-3.8-11.3-9.4l-11.1,6c2.8,7,10.6,15.3,22.4,15.3c12.2,0,20.1-8.7,20.1-18.9c0-12.2-12.7-14.6-20.4-17.5
			c-3.4-1.2-5.4-3-5.4-5.5c0-3.1,2.5-4.7,5.2-4.7c3.7,0.1,7.2,1.9,9.4,5l8.3-7.7C483.3,344.4,476.6,340.9,469.5,341.1"/>
		<path class="st1" d="M522.9,386.4c-1.6,0.9-3.5,1.4-5.4,1.3c-4.7,0-7.4-2.3-7.4-9.2v-24.6h14.9V342h-14.9v-23l-13.9,8.8V342h-8.8
			v11.9h8.8v24.8c0,14.1,8,21,20.7,21c3.2,0,6.3-0.7,9.2-2L522.9,386.4z"/>
	</g>
</g>
</svg>
